<svg width="128" height="128" viewBox="0 0 128 128" fill="none" xmlns="http://www.w3.org/2000/svg">
<rect width="128" height="128" rx="20" fill="#FFE0E2"/>
<path d="M54.5808 10.3204C54.0661 10.4952 53.4349 10.7671 53.1728 10.9225C51.9007 11.6507 50.6384 12.9616 50.0557 14.1463C49.8227 14.6124 49.7741 14.6512 49.308 14.758C48.0457 15.0494 46.4532 16.0786 45.6861 17.0982C44.6956 18.4188 44.2781 19.6132 44.249 21.2251L44.2295 22.2253L43.6275 22.6623C42.841 23.2449 42.3457 23.7595 41.8214 24.5558C40.8795 25.9735 40.559 27.0319 40.5687 28.7895C40.5784 29.8576 40.6173 30.1781 40.8309 30.8966L41.0834 31.7414L40.5687 32.2561C39.1802 33.6447 38.3936 35.4605 38.2965 37.5094C38.1703 39.9661 38.918 41.9761 40.5493 43.6463C40.9766 44.0833 41.4427 44.53 41.5883 44.6271C41.8408 44.8116 41.8408 44.8213 41.7437 45.3942C41.6951 45.7146 41.666 46.4332 41.6951 46.9964C41.8214 49.7056 43.4624 52.2206 45.9288 53.4829C46.8902 53.9878 47.4825 54.1723 48.7254 54.3666L49.7353 54.5219L49.9489 55.0074C50.2402 55.6969 51.0462 56.8718 51.5997 57.4059C52.6096 58.4061 54.0079 59.212 55.3576 59.581C56.1927 59.8141 58.5426 59.8238 59.3388 59.6004C60.7954 59.1829 62.1063 58.4158 63.155 57.367L63.7182 56.8038L64.3202 57.4156C65.2913 58.3963 66.573 59.144 67.9519 59.5422C69.0395 59.8626 71.0884 59.8529 72.1953 59.5422C74.5258 58.8722 76.6718 57.0369 77.4972 55.0074L77.7011 54.4928L78.3031 54.4345C80.4297 54.2015 81.9834 53.4732 83.4205 52.0458C84.7702 50.7155 85.4305 49.4046 85.7121 47.5305C85.8384 46.7148 85.8481 46.4138 85.7413 45.6564C85.6247 44.7533 85.6247 44.7533 85.8578 44.5882C86.3724 44.2387 87.3435 43.2191 87.7513 42.6073C88.6932 41.1896 89.1496 39.7039 89.1496 38.024C89.1496 35.8101 88.431 33.9263 86.9939 32.3823L86.3433 31.6832L86.5375 31.1103C86.8288 30.2849 86.9745 28.7021 86.8385 27.7311C86.5861 25.789 85.615 24.1091 84.042 22.8468L83.2263 22.1865L83.1874 21.1669C83.168 20.6037 83.1001 19.9239 83.0321 19.6618C82.7116 18.3606 81.6338 16.7292 80.5754 15.933C79.9733 15.4766 78.8372 14.9328 78.1089 14.7483C77.7399 14.6609 77.5749 14.5638 77.536 14.4279C77.4389 14.1172 76.6038 12.9228 76.0892 12.3499C75.4774 11.6701 74.0791 10.7574 73.1469 10.4369C72.7391 10.2913 72.3216 10.1359 72.2342 10.0874C72.1371 10.0388 71.2826 9.99997 70.3212 9.99997C68.6511 9.99997 68.5442 10.0097 67.6994 10.2913C67.2139 10.4466 66.6799 10.6506 66.5051 10.738C65.8448 11.0681 64.6698 11.9712 64.2134 12.4761L63.7376 13.0102L62.9705 12.2528C62.553 11.8352 61.9315 11.34 61.6013 11.1361C60.9313 10.7282 59.6981 10.1942 59.4262 10.1942C59.3291 10.1942 59.2223 10.1456 59.1932 10.0971C59.1543 10.0388 58.4261 9.99997 57.3191 9.99997C55.5324 10.0097 55.4935 10.0097 54.5808 10.3204ZM58.2998 13.5442C60.0768 14.0103 61.31 15.2436 61.7664 17.0303C61.9606 17.7877 61.9606 18.0596 61.9606 35.043C61.9606 53.7742 61.9898 52.7061 61.4266 53.8519C60.64 55.4541 58.8242 56.4446 56.9889 56.2795C54.775 56.0756 53.1242 54.4928 52.8717 52.308C52.7941 51.6865 52.9203 51.0553 53.3378 49.9678C53.668 49.0744 53.6486 48.6666 53.2213 48.084C52.8426 47.5596 52.3668 47.3557 51.6677 47.4042C51.2598 47.4334 51.0171 47.511 50.7743 47.6955C50.2888 48.0645 49.6673 49.424 49.4828 50.5115C49.4149 50.9582 49.2692 50.9776 48.3564 50.6863C47.5602 50.4436 47.1135 50.162 46.4532 49.5114C45.2588 48.3267 44.8607 46.5886 45.4433 45.0543C45.7249 44.3261 45.7152 43.5298 45.4239 43.1025C45.3074 42.918 44.851 42.5588 44.3849 42.2772C42.9478 41.4032 42.2098 40.3934 41.8796 38.8591C41.7534 38.2571 41.7437 38.024 41.8408 37.354C42.0544 35.8489 42.8215 34.674 44.2198 33.7223C44.8995 33.2465 45.084 32.9067 45.0452 32.1299C45.0161 31.6249 44.9578 31.4016 44.7539 31.0908C44.3363 30.4694 44.0936 29.6149 44.0936 28.8186C44.0936 27.0902 45.0064 25.7016 46.6474 24.9248C47.8903 24.3324 48.269 23.5945 47.9389 22.4195C47.5796 21.1086 47.8418 19.9337 48.6963 19.0791C49.3469 18.4286 49.9004 18.1761 50.9005 18.0596C51.8036 17.9527 52.26 17.6906 52.561 17.0788C52.6484 16.8943 52.862 16.4574 53.0368 16.0981C53.9981 14.0686 56.2121 13.0005 58.2998 13.5442ZM71.8166 13.6996C73.0013 14.1366 73.9238 15.0105 74.4481 16.1952C75.1376 17.7391 75.3415 17.9139 76.5261 18.0693C76.9825 18.1178 77.536 18.2538 77.7594 18.3509C78.3517 18.613 79.0023 19.2636 79.3421 19.9337C79.5849 20.4192 79.6335 20.6328 79.6335 21.2057C79.6335 21.5844 79.5655 22.1767 79.4781 22.5263C79.1868 23.6916 79.5461 24.3324 80.8375 24.9442C81.8086 25.4103 82.5174 26.1191 82.9641 27.0611C83.2263 27.6145 83.2748 27.8573 83.304 28.5759C83.3525 29.6052 83.236 30.0907 82.7213 31.0326C82.4397 31.5667 82.3524 31.8288 82.3524 32.1978C82.3524 32.8387 82.7408 33.4602 83.3817 33.8583C84.712 34.6837 85.5374 36.1111 85.6345 37.7521C85.7413 39.5971 84.7799 41.3158 83.1195 42.2675C82.3232 42.7238 82.2261 42.8015 81.9737 43.2094C81.7115 43.656 81.7115 44.2192 81.9834 44.9281C82.1679 45.3942 82.2067 45.6758 82.2067 46.5594C82.2067 47.5887 82.1873 47.6567 81.8474 48.3558C81.2745 49.5308 80.2161 50.4144 79.0023 50.7252C78.0604 50.9776 78.0313 50.9679 77.9147 50.3076C77.7788 49.6085 77.2641 48.3364 76.9534 47.9771C76.4582 47.3848 75.4969 47.21 74.7783 47.579C74.3219 47.8121 74.0403 48.1908 73.9141 48.754C73.817 49.1909 73.8364 49.2589 74.3413 50.5892C74.9822 52.2594 74.2831 54.4054 72.7488 55.4347C70.8456 56.7262 68.4083 56.5417 66.8644 54.9977C66.2332 54.3666 65.8739 53.7451 65.6408 52.8323C65.4661 52.1332 65.4564 51.5311 65.4564 35.1012C65.4564 23.711 65.4855 17.9042 65.5535 17.5158C65.9127 15.496 67.2333 14.0201 69.1269 13.5442C69.8746 13.35 71.0786 13.418 71.8166 13.6996Z" fill="#92487A"/>
<path d="M18.6912 52.6703C16.5744 53.2238 14.9042 54.758 14.1954 56.8166C14.0011 57.3507 13.9817 57.5838 14.0109 58.9044C14.04 60.1473 14.0885 60.5454 14.3022 61.3125C14.4478 61.8175 14.6226 62.4778 14.7003 62.7691C14.778 63.0604 15.0013 63.8663 15.2052 64.5655C15.3994 65.2549 15.681 66.3036 15.8364 66.896C16.1083 67.9447 16.3608 68.8866 16.9143 70.9258C17.0696 71.489 17.3415 72.5086 17.526 73.2077C17.7105 73.8971 17.9436 74.8002 18.0601 75.1983C18.1669 75.5965 18.4485 76.6937 18.6912 77.6259C20.0895 83.054 22.187 87.715 24.7214 91.0165C25.5273 92.0749 27.45 93.9879 28.8094 95.0948C29.9261 95.9979 35.2959 100.319 35.7135 100.639C38.6557 102.912 40.1997 104.271 40.8794 105.184C42.2486 107.009 43.0448 109.699 43.2681 113.263C43.3847 115.069 43.7925 116.127 44.7635 117.166C45.453 117.904 46.0453 118.312 46.9192 118.652L47.531 118.895H53.095C56.1538 118.895 58.7367 118.856 58.8338 118.817C60.436 118.04 60.5817 117.943 61.2323 117.293C62.3975 116.127 62.7374 115.254 62.9801 112.874C63.0578 112.098 63.1841 110.787 63.2715 109.961C63.5433 107.233 63.6793 106.068 63.7473 106.009C63.7764 105.97 63.8055 106.077 63.8055 106.233C63.8055 106.388 63.8541 106.932 63.9026 107.437C64.0774 109.291 64.2037 110.534 64.3881 112.457C64.6503 115.234 64.9708 116.089 66.2234 117.341C66.8254 117.943 67.0197 118.06 68.583 118.817C68.8064 118.924 79.9733 118.914 80.1966 118.808C80.284 118.769 80.6044 118.613 80.8957 118.487C82.0998 117.934 83.0417 116.992 83.6049 115.778C83.9448 115.04 84.0516 114.516 84.2458 112.389C84.5274 109.311 85.11 107.33 86.2364 105.621C86.7317 104.873 88.2173 103.387 89.47 102.407C91.985 100.436 97.0538 96.3669 98.5686 95.0948C101.957 92.2594 103.696 90.1037 105.541 86.4138C106.618 84.2678 107.92 80.7235 108.628 78.0143C108.813 77.2958 109.095 76.2179 109.25 75.6353C109.405 75.043 109.619 74.237 109.726 73.8389C109.833 73.4408 110.037 72.6736 110.172 72.1396C110.318 71.6055 110.522 70.8578 110.619 70.4888C110.726 70.1101 110.959 69.2168 111.153 68.4982C111.338 67.7796 111.619 66.7503 111.775 66.2163C111.93 65.6822 112.212 64.6335 112.406 63.8858C112.872 62.0699 113.221 60.7493 113.338 60.3803C113.387 60.2153 113.425 59.4481 113.425 58.6713C113.425 57.341 113.406 57.2148 113.144 56.5739C112.746 55.5931 112.416 55.0688 111.794 54.4279C110.6 53.2141 109.192 52.5926 107.454 52.5052C105.385 52.3984 103.667 53.0879 102.249 54.5735C101.754 55.0979 101.307 55.7388 101.074 56.2631C100.569 57.3895 100.248 58.1761 99.9183 59.0791C99.7241 59.6423 99.4134 60.4677 99.2483 60.9241C99.0735 61.3805 98.7725 62.2059 98.5686 62.7691C98.0054 64.3422 96.9372 67.2844 96.5682 68.2748C96.3837 68.7701 96.2381 69.2168 96.2381 69.275C96.2381 69.4304 96.1119 69.3915 95.5487 69.0808C94.4611 68.4885 93.8979 68.3525 92.4025 68.3525C91.247 68.3525 90.946 68.3914 90.3633 68.5759C88.732 69.1196 88.7708 69.0905 83.1388 74.7031C78.6624 79.1601 78.0506 79.636 75.1763 80.8303C71.2145 82.4714 68.7384 84.3746 66.6312 87.4042C65.4272 89.123 64.2134 91.6865 63.8929 93.1625C63.8347 93.4247 63.7473 93.648 63.6987 93.648C63.6502 93.648 63.6113 93.5897 63.6113 93.5218C63.6113 93.1139 62.6112 90.4436 62.1353 89.5794C61.0187 87.5596 60.2904 86.5497 58.9601 85.1709C57.1442 83.287 54.9982 81.8985 52.3085 80.8303C50.7548 80.2089 50.279 79.9758 49.2303 79.2767C48.1524 78.5387 47.9194 78.3251 43.5206 73.9457C41.462 71.8968 39.5199 70.0033 39.2092 69.7411C37.3254 68.1583 34.422 67.8379 32.1498 68.9546C31.7517 69.1488 31.3827 69.3139 31.3438 69.3139C31.2467 69.3236 30.9845 68.6244 28.6735 62.2836C27.314 58.5451 26.7897 57.1953 26.3916 56.3602C25.4691 54.4473 23.9348 53.1655 21.9733 52.6703C21.0023 52.4178 19.6234 52.4178 18.6912 52.6703ZM21.6044 56.302C21.8957 56.4476 22.3132 56.7681 22.556 57.0206C23.0512 57.5449 23.1386 57.7585 24.3815 61.1669C24.6534 61.9146 25.003 62.8565 25.1486 63.2546C25.304 63.6527 25.7895 64.9442 26.2265 66.1191C26.6537 67.2941 27.1004 68.4691 27.1975 68.7409C27.2946 69.0031 27.6053 69.8382 27.8772 70.5859C28.1491 71.3336 28.4404 72.1299 28.5278 72.3629C28.6735 72.7513 28.6735 72.8484 28.5084 73.7418C28.12 75.8392 28.6832 77.791 30.1106 79.3446C30.6058 79.8787 34.7522 84.1804 37.1021 86.608C39.8501 89.4337 40.9474 90.5795 41.2387 90.9194C41.6077 91.3466 42.3359 91.7059 42.8312 91.7059C43.6177 91.7059 44.4237 91.0456 44.5499 90.3076C44.579 90.1231 44.5693 89.7639 44.5305 89.5211C44.4722 89.0938 44.346 88.9385 42.6564 87.1615C41.6562 86.1128 39.8598 84.2484 38.6557 83.0152C37.4516 81.7917 35.9174 80.2089 35.2474 79.5194C32.0236 76.2082 32.1012 76.315 32.1012 74.907C32.1012 73.8486 32.2954 73.3339 32.9169 72.7319C33.5092 72.159 34.0336 71.9454 34.9464 71.9065C36.3641 71.8483 36.1019 71.654 41.0348 76.5481C43.4429 78.9368 45.6957 81.1119 46.0453 81.3838C47.5213 82.5491 49.1429 83.4521 51.1044 84.2387C55.5129 85.9865 58.3192 88.9773 59.8534 93.5606C60.64 95.8911 60.873 98.4546 60.5623 101.319C60.4749 102.145 60.3584 103.261 60.3098 103.795C60.2613 104.329 60.1447 105.446 60.067 106.271C59.9797 107.097 59.8728 108.194 59.8243 108.699C59.7757 109.204 59.6883 110.039 59.6301 110.544C59.5815 111.049 59.4844 111.991 59.4359 112.622C59.3776 113.263 59.2611 113.933 59.1834 114.127C58.9989 114.574 58.6105 114.982 58.1541 115.215C57.8142 115.389 57.5229 115.399 53.0756 115.399C48.57 115.399 48.3369 115.389 47.9874 115.205C47.4921 114.962 47.0552 114.418 46.9289 113.904C46.8707 113.69 46.7736 112.826 46.7153 112.001C46.4531 108.534 45.6278 105.825 44.1227 103.572C43.0642 101.97 42.1029 101.106 36.4806 96.6679C35.2571 95.6969 31.538 92.677 31.4701 92.5896C31.4409 92.5507 30.9457 92.1235 30.3534 91.6379C28.6832 90.2494 27.5956 88.9967 26.4207 87.1226C24.5757 84.1707 23.2842 80.8983 21.9928 75.9266C21.7015 74.8002 21.2645 73.1689 21.0314 72.2852C20.7887 71.4016 20.4682 70.1781 20.3032 69.5663C19.6623 67.1387 18.8175 64.0314 18.5456 63.0798C18.0504 61.3805 17.4872 59.0597 17.4872 58.7393C17.4872 58.1567 17.7785 57.4284 18.196 56.972C19.1088 55.9815 20.4294 55.7291 21.6044 56.302ZM108.056 56.1855C108.881 56.4574 109.425 56.972 109.726 57.7585C109.988 58.4674 109.978 58.9238 109.697 60.0016C109.114 62.235 108.716 63.7013 108.376 64.9054C108.172 65.6239 107.803 66.9834 107.56 67.9156C107.318 68.8478 107.036 69.9159 106.929 70.2946C106.444 72.091 106.075 73.4699 105.589 75.344C104.754 78.6067 104.346 79.9273 103.492 82.0927C102.171 85.4816 100.569 88.1811 98.7142 90.1426C97.8306 91.0845 94.2475 94.085 90.6061 96.9495C85.3334 101.086 84.3818 101.96 83.1583 103.795C81.7697 105.873 80.954 108.68 80.6918 112.292C80.5559 114.166 80.4102 114.584 79.7402 115.059L79.3227 115.351H74.3898H69.457L69.0297 115.059C68.4665 114.651 68.1946 114.137 68.0781 113.205C67.9227 111.874 67.7868 110.641 67.6411 109.087C67.2721 105.164 67.0294 102.824 66.8837 101.805C66.7283 100.659 66.7283 97.1923 66.9031 96.2212C67.2333 94.2889 67.7965 92.5993 68.6122 91.0553C69.253 89.8318 69.5638 89.3754 70.3794 88.385C72.0108 86.4138 73.5644 85.3554 76.6426 84.1027C79.9635 82.753 80.7404 82.1509 86.285 76.6549C89.1204 73.8486 90.7906 72.2561 91.0431 72.1396C91.3052 72.0133 91.7131 71.9356 92.2666 71.9162C93.2764 71.8677 93.8591 72.0813 94.4708 72.7028C95.1214 73.3728 95.3156 73.8486 95.3447 74.8585C95.3642 75.6547 95.3447 75.7809 95.102 76.247C94.8398 76.7423 93.6066 78.0629 89.0621 82.7238C85.984 85.8797 83.2068 88.7831 83.0612 88.987C82.8087 89.3463 82.7893 90.162 83.0126 90.6669C83.2748 91.2592 83.9448 91.7059 84.5565 91.7059C85.3916 91.7059 85.1974 91.871 89.6448 87.2877C90.4216 86.4915 91.616 85.2388 92.3054 84.5203C93.0045 83.8017 94.3154 82.4422 95.2282 81.5101C97.3159 79.3738 97.5587 79.1019 98.0151 78.4222C98.4618 77.7521 98.7337 77.0336 98.9182 76.0917C99.0929 75.1692 99.0929 74.674 98.889 73.6447L98.7337 72.8096L99.2483 71.4016C99.5299 70.6345 99.9669 69.4304 100.219 68.7409C100.472 68.0418 100.977 66.6921 101.336 65.7307C101.686 64.7694 102.064 63.7595 102.161 63.4974C102.259 63.2255 102.511 62.5555 102.725 61.9923C102.938 61.4291 103.346 60.3415 103.628 59.5647C104.23 57.8848 104.395 57.5352 104.841 57.04C105.259 56.5836 105.715 56.2826 106.269 56.1078C106.861 55.9233 107.318 55.9427 108.056 56.1855Z" fill="#92487A"/>
</svg>
